<svg aria-hidden="true" style="position: absolute; width: 0; height: 0; overflow: hidden;" version="1.1" xmlns="http://www.w3.org/2000/svg" xmlns:xlink="http://www.w3.org/1999/xlink">
<defs>
<symbol id="icon-airplay" viewBox="0 0 24 24">
<path d="M5 16h-1c-0.276 0-0.525-0.111-0.707-0.293s-0.293-0.431-0.293-0.707v-10c0-0.276 0.111-0.525 0.293-0.707s0.431-0.293 0.707-0.293h16c0.276 0 0.525 0.111 0.707 0.293s0.293 0.431 0.293 0.707v10c0 0.276-0.111 0.525-0.293 0.707s-0.431 0.293-0.707 0.293h-1c-0.552 0-1 0.448-1 1s0.448 1 1 1h1c0.828 0 1.58-0.337 2.121-0.879s0.879-1.293 0.879-2.121v-10c0-0.828-0.337-1.58-0.879-2.121s-1.293-0.879-2.121-0.879h-16c-0.828 0-1.58 0.337-2.121 0.879s-0.879 1.293-0.879 2.121v10c0 0.828 0.337 1.58 0.879 2.121s1.293 0.879 2.121 0.879h1c0.552 0 1-0.448 1-1s-0.448-1-1-1zM12.768 14.36c-0.035-0.043-0.079-0.087-0.128-0.128-0.424-0.354-1.055-0.296-1.408 0.128l-5 6c-0.144 0.172-0.232 0.396-0.232 0.64 0 0.552 0.448 1 1 1h10c0.225 0.001 0.453-0.075 0.64-0.232 0.424-0.354 0.482-0.984 0.128-1.408zM12 16.562l2.865 3.438h-5.73z"></path>
</symbol>
<symbol id="icon-anchor" viewBox="0 0 24 24">
<path d="M14 5c0 0.553-0.223 1.051-0.586 1.414s-0.861 0.586-1.414 0.586-1.051-0.223-1.414-0.586-0.586-0.861-0.586-1.414 0.223-1.051 0.586-1.414 0.861-0.586 1.414-0.586 1.051 0.223 1.414 0.586 0.586 0.861 0.586 1.414zM5 11h-3c-0.552 0-1 0.448-1 1 0 3.037 1.232 5.789 3.222 7.778s4.741 3.222 7.778 3.222 5.789-1.232 7.778-3.222 3.222-4.741 3.222-7.778c0-0.552-0.448-1-1-1h-3c-0.552 0-1 0.448-1 1s0.448 1 1 1h1.945c-0.23 2.086-1.173 3.956-2.581 5.364s-3.278 2.351-5.364 2.581v-12.071c0.703-0.181 1.332-0.549 1.828-1.045 0.723-0.723 1.172-1.725 1.172-2.829s-0.449-2.106-1.172-2.828-1.724-1.172-2.828-1.172-2.106 0.449-2.828 1.172-1.172 1.724-1.172 2.828 0.449 2.106 1.172 2.828c0.496 0.497 1.125 0.865 1.828 1.046v12.071c-2.086-0.23-3.956-1.173-5.364-2.581s-2.351-3.278-2.581-5.364h1.945c0.552 0 1-0.448 1-1s-0.448-1-1-1z"></path>
</symbol>
<symbol id="icon-aperture" viewBox="0 0 24 24">
<path d="M11.422 7l2.223-3.85c1.825 0.337 3.457 1.225 4.719 2.486 0.416 0.416 0.792 0.873 1.121 1.364h-5.194zM7.38 10l-2.222-3.847c0.153-0.179 0.312-0.351 0.478-0.517 1.5-1.5 3.525-2.472 5.775-2.617l-2.592 4.49zM7.958 15h-4.446c-0.332-0.938-0.512-1.948-0.512-3 0-1.43 0.333-2.781 0.926-3.982l2.6 4.504zM17.473 11.478l-1.431-2.478h4.446c0.332 0.938 0.512 1.948 0.512 3 0 1.43-0.333 2.781-0.926 3.982l-2.576-4.462zM12.588 20.981l4.032-6.981 2.222 3.848c-0.153 0.178-0.312 0.351-0.478 0.516-1.5 1.5-3.525 2.472-5.775 2.617zM10.7 22.924c0.046 0.008 0.092 0.014 0.139 0.015 0.381 0.040 0.769 0.061 1.161 0.061 3.037 0 5.789-1.232 7.778-3.222 0.366-0.366 0.706-0.757 1.017-1.171 0.042-0.047 0.079-0.097 0.11-0.149 1.318-1.813 2.095-4.046 2.095-6.458 0-1.539-0.317-3.005-0.888-4.336-0.016-0.044-0.034-0.086-0.055-0.126-0.553-1.244-1.33-2.367-2.279-3.316-1.701-1.701-3.96-2.849-6.478-3.146-0.046-0.008-0.092-0.014-0.139-0.015-0.381-0.040-0.769-0.061-1.161-0.061-3.037 0-5.789 1.232-7.778 3.222-0.366 0.365-0.706 0.757-1.017 1.171-0.042 0.047-0.079 0.097-0.111 0.149-1.317 1.813-2.094 4.046-2.094 6.458 0 1.539 0.317 3.005 0.888 4.336 0.016 0.044 0.034 0.086 0.055 0.126 0.553 1.244 1.33 2.367 2.279 3.316 1.701 1.701 3.96 2.849 6.478 3.146zM12.578 17l-2.223 3.85c-1.825-0.337-3.457-1.225-4.719-2.486-0.416-0.416-0.792-0.873-1.121-1.364h5.194zM15.465 12l-1.732 3h-3.466l-1.732-3 1.732-3h3.466z"></path>
</symbol>
<symbol id="icon-archive" viewBox="0 0 24 24">
<path d="M4 9h16v11h-16zM1 2c-0.552 0-1 0.448-1 1v5c0 0.552 0.448 1 1 1h1v12c0 0.552 0.448 1 1 1h18c0.552 0 1-0.448 1-1v-12h1c0.552 0 1-0.448 1-1v-5c0-0.552-0.448-1-1-1zM2 4h20v3h-20zM10 13h4c0.552 0 1-0.448 1-1s-0.448-1-1-1h-4c-0.552 0-1 0.448-1 1s0.448 1 1 1z"></path>
</symbol>
<symbol id="icon-book-open" viewBox="0 0 24 24">
<path d="M21 4v13h-6c-0.728 0-1.412 0.195-2 0.535v-10.535c0-0.829 0.335-1.577 0.879-2.121s1.292-0.879 2.121-0.879zM11 17.535c-0.588-0.34-1.272-0.535-2-0.535h-6v-13h5c0.829 0 1.577 0.335 2.121 0.879s0.879 1.292 0.879 2.121zM22 2h-6c-1.38 0-2.632 0.561-3.536 1.464-0.167 0.167-0.322 0.346-0.464 0.536-0.142-0.19-0.297-0.369-0.464-0.536-0.904-0.903-2.156-1.464-3.536-1.464h-6c-0.552 0-1 0.448-1 1v15c0 0.552 0.448 1 1 1h7c0.553 0 1.051 0.223 1.414 0.586s0.586 0.861 0.586 1.414c0 0.552 0.448 1 1 1s1-0.448 1-1c0-0.553 0.223-1.051 0.586-1.414s0.861-0.586 1.414-0.586h7c0.552 0 1-0.448 1-1v-15c0-0.552-0.448-1-1-1z"></path>
</symbol>
<symbol id="icon-camera" viewBox="0 0 24 24">
<path d="M24 19v-11c0-0.828-0.337-1.58-0.879-2.121s-1.293-0.879-2.121-0.879h-3.465l-1.703-2.555c-0.182-0.27-0.486-0.445-0.832-0.445h-6c-0.326 0.002-0.64 0.158-0.832 0.445l-1.703 2.555h-3.465c-0.828 0-1.58 0.337-2.121 0.879s-0.879 1.293-0.879 2.121v11c0 0.828 0.337 1.58 0.879 2.121s1.293 0.879 2.121 0.879h18c0.828 0 1.58-0.337 2.121-0.879s0.879-1.293 0.879-2.121zM22 19c0 0.276-0.111 0.525-0.293 0.707s-0.431 0.293-0.707 0.293h-18c-0.276 0-0.525-0.111-0.707-0.293s-0.293-0.431-0.293-0.707v-11c0-0.276 0.111-0.525 0.293-0.707s0.431-0.293 0.707-0.293h4c0.346 0 0.65-0.175 0.832-0.445l1.703-2.555h4.93l1.703 2.555c0.192 0.287 0.506 0.443 0.832 0.445h4c0.276 0 0.525 0.111 0.707 0.293s0.293 0.431 0.293 0.707zM17 13c0-1.38-0.561-2.632-1.464-3.536s-2.156-1.464-3.536-1.464-2.632 0.561-3.536 1.464-1.464 2.156-1.464 3.536 0.561 2.632 1.464 3.536 2.156 1.464 3.536 1.464 2.632-0.561 3.536-1.464 1.464-2.156 1.464-3.536zM15 13c0 0.829-0.335 1.577-0.879 2.121s-1.292 0.879-2.121 0.879-1.577-0.335-2.121-0.879-0.879-1.292-0.879-2.121 0.335-1.577 0.879-2.121 1.292-0.879 2.121-0.879 1.577 0.335 2.121 0.879 0.879 1.292 0.879 2.121z"></path>
</symbol>
<symbol id="icon-cast" viewBox="0 0 24 24">
<path d="M1.8 17.080c0.938 0.191 1.729 0.694 2.292 1.386 0.405 0.497 0.693 1.093 0.829 1.741 0.114 0.54 0.644 0.886 1.185 0.772s0.886-0.644 0.772-1.185c-0.202-0.96-0.63-1.847-1.235-2.591-0.845-1.038-2.038-1.796-3.443-2.083-0.541-0.11-1.069 0.239-1.18 0.78s0.239 1.069 0.78 1.18zM1.889 13.044c2.001 0.223 3.744 1.163 5.006 2.546 1.119 1.226 1.859 2.799 2.061 4.526 0.064 0.549 0.561 0.941 1.109 0.877s0.941-0.561 0.877-1.109c-0.251-2.15-1.174-4.112-2.57-5.642-1.578-1.729-3.763-2.908-6.263-3.186-0.549-0.061-1.043 0.334-1.104 0.883s0.334 1.043 0.883 1.104zM3 8v-2c0-0.276 0.111-0.525 0.293-0.707s0.431-0.293 0.707-0.293h16c0.276 0 0.525 0.111 0.707 0.293s0.293 0.431 0.293 0.707v12c0 0.276-0.111 0.525-0.293 0.707s-0.431 0.293-0.707 0.293h-6c-0.552 0-1 0.448-1 1s0.448 1 1 1h6c0.828 0 1.58-0.337 2.121-0.879s0.879-1.293 0.879-2.121v-12c0-0.828-0.337-1.58-0.879-2.121s-1.293-0.879-2.121-0.879h-16c-0.828 0-1.58 0.337-2.121 0.879s-0.879 1.293-0.879 2.121v2c0 0.552 0.448 1 1 1s1-0.448 1-1zM2 21c0.552 0 1-0.448 1-1s-0.448-1-1-1-1 0.448-1 1 0.448 1 1 1z"></path>
</symbol>
<symbol id="icon-coffee" viewBox="0 0 24 24">
<path d="M19 15v-6c0.829 0 1.577 0.335 2.121 0.879s0.879 1.292 0.879 2.121-0.335 1.577-0.879 2.121-1.292 0.879-2.121 0.879zM2 7c-0.552 0-1 0.448-1 1v9c0 1.38 0.561 2.632 1.464 3.536s2.156 1.464 3.536 1.464h8c1.38 0 2.632-0.561 3.536-1.464s1.464-2.156 1.464-3.536c1.38 0 2.632-0.561 3.536-1.464s1.464-2.156 1.464-3.536-0.561-2.632-1.464-3.536-2.156-1.464-3.536-1.464h-1zM3 9h14v8c0 0.829-0.335 1.577-0.879 2.121s-1.292 0.879-2.121 0.879h-8c-0.829 0-1.577-0.335-2.121-0.879s-0.879-1.292-0.879-2.121zM5 1v3c0 0.552 0.448 1 1 1s1-0.448 1-1v-3c0-0.552-0.448-1-1-1s-1 0.448-1 1zM9 1v3c0 0.552 0.448 1 1 1s1-0.448 1-1v-3c0-0.552-0.448-1-1-1s-1 0.448-1 1zM13 1v3c0 0.552 0.448 1 1 1s1-0.448 1-1v-3c0-0.552-0.448-1-1-1s-1 0.448-1 1z"></path>
</symbol>
<symbol id="icon-columns" viewBox="0 0 24 24">
<path d="M12 4h7c0.276 0 0.525 0.111 0.707 0.293s0.293 0.431 0.293 0.707v14c0 0.276-0.111 0.525-0.293 0.707s-0.431 0.293-0.707 0.293h-7c-0.552 0-1 0.448-1 1s0.448 1 1 1h7c0.828 0 1.58-0.337 2.121-0.879s0.879-1.293 0.879-2.121v-14c0-0.828-0.337-1.58-0.879-2.121s-1.293-0.879-2.121-0.879h-7c-0.552 0-1 0.448-1 1s0.448 1 1 1zM12 2h-7c-0.828 0-1.58 0.337-2.121 0.879s-0.879 1.293-0.879 2.121v14c0 0.828 0.337 1.58 0.879 2.121s1.293 0.879 2.121 0.879h7c0.552 0 1-0.448 1-1s-0.448-1-1-1h-7c-0.276 0-0.525-0.111-0.707-0.293s-0.293-0.431-0.293-0.707v-14c0-0.276 0.111-0.525 0.293-0.707s0.431-0.293 0.707-0.293h7c0.552 0 1-0.448 1-1s-0.448-1-1-1zM11 3v18c0 0.552 0.448 1 1 1s1-0.448 1-1v-18c0-0.552-0.448-1-1-1s-1 0.448-1 1z"></path>
</symbol>
<symbol id="icon-command" viewBox="0 0 24 24">
<path d="M16 16h2c0.553 0 1.051 0.223 1.414 0.586s0.586 0.861 0.586 1.414-0.223 1.051-0.586 1.414-0.861 0.586-1.414 0.586-1.051-0.223-1.414-0.586-0.586-0.861-0.586-1.414zM8 16v2c0 0.553-0.223 1.051-0.586 1.414s-0.861 0.586-1.414 0.586-1.051-0.223-1.414-0.586-0.586-0.861-0.586-1.414 0.223-1.051 0.586-1.414 0.861-0.586 1.414-0.586zM8 8h-2c-0.553 0-1.051-0.223-1.414-0.586s-0.586-0.861-0.586-1.414 0.223-1.051 0.586-1.414 0.861-0.586 1.414-0.586 1.051 0.223 1.414 0.586 0.586 0.861 0.586 1.414zM16 8h-8v8h8zM18 4c0.553 0 1.051 0.223 1.414 0.586s0.586 0.861 0.586 1.414-0.223 1.051-0.586 1.414-0.861 0.586-1.414 0.586h-2v-2c0-0.553 0.223-1.051 0.586-1.414s0.861-0.586 1.414-0.586zM10 10v-4c0-1.104-0.449-2.106-1.172-2.828s-1.724-1.172-2.828-1.172-2.106 0.449-2.828 1.172-1.172 1.724-1.172 2.828 0.449 2.106 1.172 2.828 1.724 1.172 2.828 1.172zM10 14h-4c-1.104 0-2.106 0.449-2.828 1.172s-1.172 1.724-1.172 2.828 0.449 2.106 1.172 2.828 1.724 1.172 2.828 1.172 2.106-0.449 2.828-1.172 1.172-1.724 1.172-2.828zM14 14v4c0 1.104 0.449 2.106 1.172 2.828s1.724 1.172 2.828 1.172 2.106-0.449 2.828-1.172 1.172-1.724 1.172-2.828-0.449-2.106-1.172-2.828-1.724-1.172-2.828-1.172zM14 10v4h-4v-4zM18 2c-1.104 0-2.106 0.449-2.828 1.172s-1.172 1.724-1.172 2.828v4h4c1.104 0 2.106-0.449 2.828-1.172s1.172-1.724 1.172-2.828-0.449-2.106-1.172-2.828-1.724-1.172-2.828-1.172z"></path>
</symbol>
<symbol id="icon-cpu" viewBox="0 0 24 24">
<path d="M6 5h12c0.276 0 0.525 0.111 0.707 0.293s0.293 0.431 0.293 0.707v12c0 0.276-0.111 0.525-0.293 0.707s-0.431 0.293-0.707 0.293h-12c-0.276 0-0.525-0.111-0.707-0.293s-0.293-0.431-0.293-0.707v-12c0-0.276 0.111-0.525 0.293-0.707s0.431-0.293 0.707-0.293zM9 8c-0.552 0-1 0.448-1 1v6c0 0.552 0.448 1 1 1h6c0.552 0 1-0.448 1-1v-6c0-0.552-0.448-1-1-1zM10 10h4v4h-4zM1 15h2v3c0 0.828 0.337 1.58 0.879 2.121s1.293 0.879 2.121 0.879h2v2c0 0.552 0.448 1 1 1s1-0.448 1-1v-2h4v2c0 0.552 0.448 1 1 1s1-0.448 1-1v-2h2c0.828 0 1.58-0.337 2.121-0.879s0.879-1.293 0.879-2.121v-3h2c0.552 0 1-0.448 1-1s-0.448-1-1-1h-2v-3h2c0.552 0 1-0.448 1-1s-0.448-1-1-1h-2v-2c0-0.828-0.337-1.58-0.879-2.121s-1.293-0.879-2.121-0.879h-2v-2c0-0.552-0.448-1-1-1s-1 0.448-1 1v2h-4v-2c0-0.552-0.448-1-1-1s-1 0.448-1 1v2h-2c-0.828 0-1.58 0.337-2.121 0.879s-0.879 1.293-0.879 2.121v2h-2c-0.552 0-1 0.448-1 1s0.448 1 1 1h2v3h-2c-0.552 0-1 0.448-1 1s0.448 1 1 1z"></path>
</symbol>
<symbol id="icon-facebook" viewBox="0 0 24 24">
<path d="M17 3v2h-2c-0.552 0-1.053 0.225-1.414 0.586s-0.586 0.862-0.586 1.414v3c0 0.552 0.448 1 1 1h2.719l-0.5 2h-2.219c-0.552 0-1 0.448-1 1v7h-2v-7c0-0.552-0.448-1-1-1h-2v-2h2c0.552 0 1-0.448 1-1v-3c0-1.105 0.447-2.103 1.172-2.828s1.723-1.172 2.828-1.172zM18 1h-3c-1.657 0-3.158 0.673-4.243 1.757s-1.757 2.586-1.757 4.243v2h-2c-0.552 0-1 0.448-1 1v4c0 0.552 0.448 1 1 1h2v7c0 0.552 0.448 1 1 1h4c0.552 0 1-0.448 1-1v-7h2c0.466 0 0.858-0.319 0.97-0.757l1-4c0.134-0.536-0.192-1.079-0.728-1.213-0.083-0.021-0.167-0.031-0.242-0.030h-3v-2h3c0.552 0 1-0.448 1-1v-4c0-0.552-0.448-1-1-1z"></path>
</symbol>
<symbol id="icon-fast-forward" viewBox="0 0 24 24">
<path d="M14 16.955v-9.91l6.371 4.955zM3 16.955v-9.91l6.371 4.955zM2.614 19.789l9-7c0.251-0.195 0.383-0.486 0.386-0.78v6.991c0 0.552 0.448 1 1 1 0.232 0 0.446-0.079 0.614-0.211l9-7c0.436-0.339 0.514-0.967 0.175-1.403-0.054-0.069-0.115-0.129-0.175-0.175l-9-7c-0.436-0.339-1.064-0.261-1.403 0.175-0.143 0.184-0.212 0.401-0.211 0.614v6.99c-0.002-0.211-0.071-0.424-0.211-0.604-0.054-0.069-0.115-0.129-0.175-0.175l-9-7c-0.436-0.339-1.064-0.261-1.403 0.175-0.143 0.184-0.212 0.401-0.211 0.614v14c0 0.552 0.448 1 1 1 0.232 0 0.446-0.079 0.614-0.211z"></path>
</symbol>
<symbol id="icon-feather" viewBox="0 0 24 24">
<path d="M18.111 15.792c0.069-0.053 0.13-0.115 0.183-0.184l2.653-2.661c1.367-1.367 2.051-3.161 2.051-4.952s-0.684-3.585-2.051-4.952-3.161-2.051-4.952-2.051-3.585 0.684-4.952 2.051l-6.75 6.75c-0.195 0.195-0.293 0.451-0.293 0.707v8.086l-2.707 2.707c-0.391 0.391-0.391 1.024 0 1.414s1.024 0.391 1.414 0l2.707-2.707h8.086c0.277 0 0.527-0.112 0.708-0.294zM9.414 16h5.665l-1.994 2h-5.671zM17.073 14h-5.659l5.293-5.293c0.391-0.391 0.391-1.024 0-1.414s-1.024-0.391-1.414 0l-9.293 9.293v-5.672l6.457-6.457c0.977-0.977 2.256-1.465 3.538-1.465s2.561 0.488 3.538 1.465 1.465 2.256 1.465 3.538-0.488 2.561-1.465 3.538z"></path>
</symbol>
<symbol id="icon-figma" viewBox="0 0 24 24">
<path d="M13 12.5c0-0.691 0.279-1.314 0.732-1.768s1.077-0.732 1.768-0.732 1.314 0.279 1.768 0.732 0.732 1.077 0.732 1.768-0.279 1.314-0.732 1.768-1.077 0.732-1.768 0.732-1.314-0.279-1.768-0.732-0.732-1.077-0.732-1.768zM8.5 8c-0.691 0-1.314-0.279-1.768-0.732s-0.732-1.077-0.732-1.768 0.279-1.314 0.732-1.768 1.077-0.732 1.768-0.732h2.5v5zM13 8v-5h2.5c0.691 0 1.314 0.279 1.768 0.732s0.732 1.077 0.732 1.768-0.279 1.314-0.732 1.768-1.077 0.732-1.768 0.732zM11 17v2.5c0 0.691-0.279 1.314-0.732 1.768s-1.077 0.732-1.768 0.732-1.314-0.279-1.768-0.732-0.732-1.077-0.732-1.768 0.279-1.314 0.732-1.768 1.077-0.732 1.768-0.732zM4 12.5c0 1.242 0.505 2.369 1.318 3.182 0.112 0.112 0.23 0.218 0.353 0.318-0.123 0.1-0.241 0.206-0.353 0.318-0.813 0.813-1.318 1.94-1.318 3.182s0.505 2.369 1.318 3.182 1.94 1.318 3.182 1.318 2.369-0.505 3.182-1.318 1.318-1.94 1.318-3.182v-3.258c0.715 0.478 1.575 0.758 2.5 0.758 1.242 0 2.369-0.505 3.182-1.318s1.318-1.94 1.318-3.182-0.505-2.369-1.318-3.182c-0.112-0.112-0.23-0.218-0.353-0.318 0.123-0.1 0.241-0.206 0.353-0.318 0.813-0.813 1.318-1.94 1.318-3.182s-0.505-2.369-1.318-3.182-1.94-1.318-3.182-1.318h-7c-1.242 0-2.369 0.505-3.182 1.318s-1.318 1.94-1.318 3.182 0.505 2.369 1.318 3.182c0.112 0.112 0.23 0.218 0.353 0.318-0.123 0.1-0.241 0.206-0.353 0.318-0.813 0.813-1.318 1.94-1.318 3.182zM6 12.5c0-0.691 0.279-1.314 0.732-1.768s1.077-0.732 1.768-0.732h2.5v5h-2.5c-0.691 0-1.314-0.279-1.768-0.732s-0.732-1.077-0.732-1.768z"></path>
</symbol>
<symbol id="icon-file-text" viewBox="0 0 24 24">
<path d="M17.586 7h-2.586v-2.586zM20.707 7.293l-6-6c-0.092-0.092-0.202-0.166-0.324-0.217s-0.253-0.076-0.383-0.076h-8c-0.828 0-1.58 0.337-2.121 0.879s-0.879 1.293-0.879 2.121v16c0 0.828 0.337 1.58 0.879 2.121s1.293 0.879 2.121 0.879h12c0.828 0 1.58-0.337 2.121-0.879s0.879-1.293 0.879-2.121v-12c0-0.276-0.112-0.526-0.293-0.707zM13 3v5c0 0.552 0.448 1 1 1h5v11c0 0.276-0.111 0.525-0.293 0.707s-0.431 0.293-0.707 0.293h-12c-0.276 0-0.525-0.111-0.707-0.293s-0.293-0.431-0.293-0.707v-16c0-0.276 0.111-0.525 0.293-0.707s0.431-0.293 0.707-0.293zM16 12h-8c-0.552 0-1 0.448-1 1s0.448 1 1 1h8c0.552 0 1-0.448 1-1s-0.448-1-1-1zM16 16h-8c-0.552 0-1 0.448-1 1s0.448 1 1 1h8c0.552 0 1-0.448 1-1s-0.448-1-1-1zM10 8h-2c-0.552 0-1 0.448-1 1s0.448 1 1 1h2c0.552 0 1-0.448 1-1s-0.448-1-1-1z"></path>
</symbol>
<symbol id="icon-film" viewBox="0 0 24 24">
<path d="M16 11h-8v-8h8zM8 13h8v8h-8zM6 6h-3v-1.82c0-0.326 0.131-0.62 0.346-0.834s0.508-0.346 0.834-0.346h1.82zM3 8h3v3h-3zM6 16h-3v-3h3zM3 18h3v3h-1.82c-0.326 0-0.62-0.131-0.834-0.346s-0.346-0.508-0.346-0.834zM21 16h-3v-3h3zM18 18h3v1.82c0 0.326-0.131 0.62-0.346 0.834s-0.508 0.346-0.834 0.346h-1.82zM21 6h-3v-3h1.82c0.326 0 0.62 0.131 0.834 0.346s0.346 0.508 0.346 0.834zM23 7v-2.82c0-0.878-0.357-1.674-0.931-2.249s-1.371-0.931-2.249-0.931h-15.64c-0.878 0-1.674 0.357-2.249 0.931s-0.931 1.371-0.931 2.249v15.64c0 0.878 0.357 1.674 0.931 2.249s1.371 0.931 2.249 0.931h15.64c0.878 0 1.674-0.357 2.249-0.931s0.931-1.371 0.931-2.249zM18 8h3v3h-3z"></path>
</symbol>
<symbol id="icon-gift" viewBox="0 0 24 24">
<path d="M11 13v8h-6v-8zM13 21v-8h6v8zM7.5 6c-0.414 0-0.788-0.167-1.061-0.439s-0.439-0.647-0.439-1.061 0.167-0.788 0.439-1.061 0.647-0.439 1.061-0.439c0.629 0 1.142 0.223 1.584 0.586 0.376 0.308 0.701 0.719 0.976 1.177 0.241 0.401 0.433 0.821 0.58 1.203zM13.346 6c0.161-0.416 0.353-0.836 0.593-1.237 0.275-0.459 0.601-0.869 0.976-1.177 0.443-0.363 0.956-0.586 1.585-0.586 0.414 0 0.788 0.167 1.061 0.439s0.439 0.647 0.439 1.061-0.167 0.788-0.439 1.061-0.647 0.439-1.061 0.439zM11 8v3h-8v-3h4.5zM19.663 6c0.216-0.455 0.337-0.963 0.337-1.5 0-0.966-0.393-1.843-1.025-2.475s-1.509-1.025-2.475-1.025c-1.16 0-2.109 0.43-2.852 1.039-0.603 0.494-1.068 1.103-1.423 1.694-0.080 0.133-0.155 0.266-0.225 0.398-0.070-0.132-0.145-0.265-0.225-0.398-0.355-0.591-0.82-1.2-1.423-1.694-0.743-0.609-1.692-1.039-2.852-1.039-0.966 0-1.843 0.393-2.475 1.025s-1.025 1.509-1.025 2.475c0 0.537 0.121 1.045 0.337 1.5h-2.337c-0.552 0-1 0.448-1 1v5c0 0.552 0.448 1 1 1h1v9c0 0.552 0.448 1 1 1h16c0.552 0 1-0.448 1-1v-9h1c0.552 0 1-0.448 1-1v-5c0-0.552-0.448-1-1-1zM13 8h8v3h-8z"></path>
</symbol>
<symbol id="icon-github" viewBox="0 0 24 24">
<path d="M8.713 18.042c-1.268 0.38-2.060 0.335-2.583 0.17-0.231-0.073-0.431-0.176-0.614-0.302-0.411-0.284-0.727-0.675-1.119-1.172-0.356-0.451-0.85-1.107-1.551-1.476-0.185-0.098-0.386-0.177-0.604-0.232-0.536-0.134-1.079 0.192-1.213 0.728s0.192 1.079 0.728 1.213c0.074 0.023 0.155 0.060 0.155 0.060 0.252 0.133 0.487 0.404 0.914 0.946 0.366 0.464 0.856 1.098 1.553 1.579 0.332 0.229 0.711 0.426 1.149 0.564 1.015 0.321 2.236 0.296 3.76-0.162 0.529-0.159 0.829-0.716 0.67-1.245s-0.716-0.829-1.245-0.67zM17 22v-3.792c0.052-0.684-0.056-1.343-0.292-1.942 0.777-0.171 1.563-0.427 2.297-0.823 2.083-1.124 3.496-3.242 3.496-6.923 0-1.503-0.516-2.887-1.379-3.981 0.355-1.345 0.226-2.726-0.293-3.933-0.122-0.283-0.359-0.482-0.634-0.564-0.357-0.106-1.732-0.309-4.373 1.362-2.273-0.541-4.557-0.509-6.646-0.002-2.639-1.669-4.013-1.466-4.37-1.36-0.296 0.088-0.521 0.3-0.635 0.565-0.554 1.292-0.624 2.672-0.292 3.932-0.93 1.178-1.387 2.601-1.379 4.017 0 3.622 1.389 5.723 3.441 6.859 0.752 0.416 1.56 0.685 2.357 0.867-0.185 0.468-0.286 0.961-0.304 1.456-0.005 0.141-0.003 0.283 0.005 0.424l0.001 3.838c0 0.552 0.448 1 1 1s1-0.448 1-1v-3.87c0-0.021-0.001-0.045-0.002-0.069-0.006-0.084-0.007-0.168-0.004-0.252 0.020-0.568 0.241-1.126 0.665-1.564 0.145-0.149 0.246-0.347 0.274-0.572 0.068-0.548-0.321-1.048-0.869-1.116-0.34-0.042-0.677-0.094-1.006-0.159-0.79-0.156-1.518-0.385-2.147-0.733-1.305-0.723-2.391-2.071-2.41-5.042 0.013-1.241 0.419-2.319 1.224-3.165 0.257-0.273 0.35-0.671 0.212-1.040-0.28-0.748-0.341-1.58-0.14-2.392 0.491 0.107 1.354 0.416 2.647 1.282 0.235 0.157 0.533 0.214 0.825 0.133 1.997-0.557 4.242-0.602 6.47 0.002 0.271 0.073 0.569 0.033 0.818-0.135 1.293-0.866 2.156-1.175 2.647-1.282 0.189 0.766 0.157 1.595-0.141 2.392-0.129 0.352-0.058 0.755 0.213 1.040 0.758 0.795 1.224 1.872 1.224 3.060 0 3.075-1.114 4.445-2.445 5.163-0.623 0.336-1.343 0.555-2.123 0.7-0.322 0.060-0.651 0.106-0.983 0.143-0.21 0.023-0.418 0.114-0.584 0.275-0.397 0.384-0.408 1.017-0.024 1.414 0.067 0.070 0.13 0.143 0.188 0.22 0.34 0.449 0.521 1.015 0.474 1.617 0 0.024-0.001 0.051-0.003 0.078v3.872c0 0.552 0.448 1 1 1s1-0.448 1-1z"></path>
</symbol>
<symbol id="icon-gitlab" viewBox="0 0 24 24">
<path d="M23.238 15.199c0.261-0.17 0.493-0.446 0.635-0.764 0.172-0.385 0.214-0.831 0.075-1.305l-1.266-3.749-2.432-7.484c-0.068-0.229-0.195-0.443-0.397-0.637-0.266-0.242-0.603-0.367-0.941-0.372-0.351-0.005-0.707 0.119-0.976 0.365-0.165 0.147-0.296 0.334-0.378 0.547-0.006 0.015-0.012 0.033-0.018 0.052l-2.217 6.818h-6.647l-2.207-6.773c-0.068-0.229-0.195-0.443-0.397-0.637-0.265-0.242-0.602-0.367-0.94-0.372-0.351-0.006-0.707 0.118-0.976 0.365-0.166 0.146-0.296 0.334-0.379 0.546-0.006 0.016-0.012 0.034-0.018 0.052l-2.441 7.512-1.22 3.78c-0.106 0.329-0.117 0.676-0.038 1.004 0.098 0.407 0.336 0.783 0.702 1.052l10.65 7.74c0.346 0.248 0.818 0.26 1.176 0zM22.003 13.624l-10.003 7.27-9.983-7.255 1.205-3.662 1.886-5.805 1.891 5.808c0.137 0.42 0.525 0.687 0.951 0.69h8.1c0.442 0 0.817-0.287 0.951-0.691l1.886-5.804 1.892 5.824z"></path>
</symbol>
<symbol id="icon-heart" viewBox="0 0 24 24">
<path d="M20.133 5.317c0.88 0.881 1.319 2.031 1.319 3.184s-0.44 2.303-1.319 3.182l-8.133 8.133-8.133-8.133c-0.879-0.879-1.318-2.029-1.318-3.183s0.439-2.304 1.318-3.183 2.029-1.318 3.183-1.318 2.304 0.439 3.183 1.318l1.060 1.060c0.391 0.391 1.024 0.391 1.414 0l1.062-1.062c0.879-0.879 2.029-1.318 3.182-1.317s2.303 0.44 3.182 1.319zM21.547 3.903c-1.269-1.269-2.934-1.904-4.596-1.905s-3.327 0.634-4.597 1.903l-0.354 0.355-0.353-0.353c-1.269-1.269-2.935-1.904-4.597-1.904s-3.328 0.635-4.597 1.904-1.904 2.935-1.904 4.597 0.635 3.328 1.904 4.597l8.84 8.84c0.391 0.391 1.024 0.391 1.414 0l8.84-8.84c1.269-1.269 1.904-2.934 1.905-4.596s-0.634-3.327-1.905-4.598z"></path>
</symbol>
<symbol id="icon-home" viewBox="0 0 24 24">
<path d="M2.386 8.211c-0.236 0.184-0.386 0.469-0.386 0.789v11c0 0.828 0.337 1.58 0.879 2.121s1.293 0.879 2.121 0.879h14c0.828 0 1.58-0.337 2.121-0.879s0.879-1.293 0.879-2.121v-11c-0.001-0.3-0.134-0.593-0.386-0.789l-9-7c-0.358-0.275-0.861-0.285-1.228 0zM16 21v-9c0-0.552-0.448-1-1-1h-6c-0.552 0-1 0.448-1 1v9h-3c-0.276 0-0.525-0.111-0.707-0.293s-0.293-0.431-0.293-0.707v-10.511l8-6.222 8 6.222v10.511c0 0.276-0.111 0.525-0.293 0.707s-0.431 0.293-0.707 0.293zM10 21v-8h4v8z"></path>
</symbol>
<symbol id="icon-instagram" viewBox="0 0 24 24">
<path d="M7 1c-1.657 0-3.158 0.673-4.243 1.757s-1.757 2.586-1.757 4.243v10c0 1.657 0.673 3.158 1.757 4.243s2.586 1.757 4.243 1.757h10c1.657 0 3.158-0.673 4.243-1.757s1.757-2.586 1.757-4.243v-10c0-1.657-0.673-3.158-1.757-4.243s-2.586-1.757-4.243-1.757zM7 3h10c1.105 0 2.103 0.447 2.828 1.172s1.172 1.723 1.172 2.828v10c0 1.105-0.447 2.103-1.172 2.828s-1.723 1.172-2.828 1.172h-10c-1.105 0-2.103-0.447-2.828-1.172s-1.172-1.723-1.172-2.828v-10c0-1.105 0.447-2.103 1.172-2.828s1.723-1.172 2.828-1.172zM16.989 11.223c-0.15-0.972-0.571-1.857-1.194-2.567-0.754-0.861-1.804-1.465-3.009-1.644-0.464-0.074-0.97-0.077-1.477-0.002-1.366 0.202-2.521 0.941-3.282 1.967s-1.133 2.347-0.93 3.712 0.941 2.521 1.967 3.282 2.347 1.133 3.712 0.93 2.521-0.941 3.282-1.967 1.133-2.347 0.93-3.712zM15.011 11.517c0.122 0.82-0.1 1.609-0.558 2.227s-1.15 1.059-1.969 1.18-1.609-0.1-2.227-0.558-1.059-1.15-1.18-1.969 0.1-1.609 0.558-2.227 1.15-1.059 1.969-1.18c0.313-0.046 0.615-0.042 0.87-0.002 0.74 0.11 1.366 0.47 1.818 0.986 0.375 0.428 0.63 0.963 0.72 1.543zM17.5 7.5c0.552 0 1-0.448 1-1s-0.448-1-1-1-1 0.448-1 1 0.448 1 1 1z"></path>
</symbol>
<symbol id="icon-layout" viewBox="0 0 24 24">
<path d="M5 2c-0.828 0-1.58 0.337-2.121 0.879s-0.879 1.293-0.879 2.121v14c0 0.828 0.337 1.58 0.879 2.121s1.293 0.879 2.121 0.879h14c0.828 0 1.58-0.337 2.121-0.879s0.879-1.293 0.879-2.121v-14c0-0.828-0.337-1.58-0.879-2.121s-1.293-0.879-2.121-0.879zM20 8h-16v-3c0-0.276 0.111-0.525 0.293-0.707s0.431-0.293 0.707-0.293h14c0.276 0 0.525 0.111 0.707 0.293s0.293 0.431 0.293 0.707zM8 10v10h-3c-0.276 0-0.525-0.111-0.707-0.293s-0.293-0.431-0.293-0.707v-9zM10 20v-10h10v9c0 0.276-0.111 0.525-0.293 0.707s-0.431 0.293-0.707 0.293z"></path>
</symbol>
<symbol id="icon-linkedin" viewBox="0 0 24 24">
<path d="M16 7c-1.933 0-3.684 0.785-4.95 2.050s-2.050 3.017-2.050 4.95v7c0 0.552 0.448 1 1 1h4c0.552 0 1-0.448 1-1v-7c0-0.276 0.111-0.525 0.293-0.707s0.431-0.293 0.707-0.293 0.525 0.111 0.707 0.293 0.293 0.431 0.293 0.707v7c0 0.552 0.448 1 1 1h4c0.552 0 1-0.448 1-1v-7c0-1.933-0.785-3.684-2.050-4.95s-3.017-2.050-4.95-2.050zM16 9c1.381 0 2.63 0.559 3.536 1.464s1.464 2.155 1.464 3.536v6h-2v-6c0-0.828-0.337-1.58-0.879-2.121s-1.293-0.879-2.121-0.879-1.58 0.337-2.121 0.879-0.879 1.293-0.879 2.121v6h-2v-6c0-1.381 0.559-2.63 1.464-3.536s2.155-1.464 3.536-1.464zM2 8c-0.552 0-1 0.448-1 1v12c0 0.552 0.448 1 1 1h4c0.552 0 1-0.448 1-1v-12c0-0.552-0.448-1-1-1zM3 10h2v10h-2zM7 4c0-0.828-0.337-1.58-0.879-2.121s-1.293-0.879-2.121-0.879-1.58 0.337-2.121 0.879-0.879 1.293-0.879 2.121 0.337 1.58 0.879 2.121 1.293 0.879 2.121 0.879 1.58-0.337 2.121-0.879 0.879-1.293 0.879-2.121zM5 4c0 0.276-0.111 0.525-0.293 0.707s-0.431 0.293-0.707 0.293-0.525-0.111-0.707-0.293-0.293-0.431-0.293-0.707 0.111-0.525 0.293-0.707 0.431-0.293 0.707-0.293 0.525 0.111 0.707 0.293 0.293 0.431 0.293 0.707z"></path>
</symbol>
<symbol id="icon-loader" viewBox="0 0 24 24">
<path d="M11 2v4c0 0.552 0.448 1 1 1s1-0.448 1-1v-4c0-0.552-0.448-1-1-1s-1 0.448-1 1zM11 18v4c0 0.552 0.448 1 1 1s1-0.448 1-1v-4c0-0.552-0.448-1-1-1s-1 0.448-1 1zM4.223 5.637l2.83 2.83c0.391 0.391 1.024 0.391 1.414 0s0.391-1.024 0-1.414l-2.83-2.83c-0.391-0.391-1.024-0.391-1.414 0s-0.391 1.024 0 1.414zM15.533 16.947l2.83 2.83c0.391 0.391 1.024 0.391 1.414 0s0.391-1.024 0-1.414l-2.83-2.83c-0.391-0.391-1.024-0.391-1.414 0s-0.391 1.024 0 1.414zM2 13h4c0.552 0 1-0.448 1-1s-0.448-1-1-1h-4c-0.552 0-1 0.448-1 1s0.448 1 1 1zM18 13h4c0.552 0 1-0.448 1-1s-0.448-1-1-1h-4c-0.552 0-1 0.448-1 1s0.448 1 1 1zM5.637 19.777l2.83-2.83c0.391-0.391 0.391-1.024 0-1.414s-1.024-0.391-1.414 0l-2.83 2.83c-0.391 0.391-0.391 1.024 0 1.414s1.024 0.391 1.414 0zM16.947 8.467l2.83-2.83c0.391-0.391 0.391-1.024 0-1.414s-1.024-0.391-1.414 0l-2.83 2.83c-0.391 0.391-0.391 1.024 0 1.414s1.024 0.391 1.414 0z"></path>
</symbol>
<symbol id="icon-lock" viewBox="0 0 24 24">
<path d="M5 12h14c0.276 0 0.525 0.111 0.707 0.293s0.293 0.431 0.293 0.707v7c0 0.276-0.111 0.525-0.293 0.707s-0.431 0.293-0.707 0.293h-14c-0.276 0-0.525-0.111-0.707-0.293s-0.293-0.431-0.293-0.707v-7c0-0.276 0.111-0.525 0.293-0.707s0.431-0.293 0.707-0.293zM18 10v-3c0-1.657-0.673-3.158-1.757-4.243s-2.586-1.757-4.243-1.757-3.158 0.673-4.243 1.757-1.757 2.586-1.757 4.243v3h-1c-0.828 0-1.58 0.337-2.121 0.879s-0.879 1.293-0.879 2.121v7c0 0.828 0.337 1.58 0.879 2.121s1.293 0.879 2.121 0.879h14c0.828 0 1.58-0.337 2.121-0.879s0.879-1.293 0.879-2.121v-7c0-0.828-0.337-1.58-0.879-2.121s-1.293-0.879-2.121-0.879zM8 10v-3c0-1.105 0.447-2.103 1.172-2.828s1.723-1.172 2.828-1.172 2.103 0.447 2.828 1.172 1.172 1.723 1.172 2.828v3z"></path>
</symbol>
<symbol id="icon-mail" viewBox="0 0 24 24">
<path d="M3 7.921l8.427 5.899c0.34 0.235 0.795 0.246 1.147 0l8.426-5.899v10.079c0 0.272-0.11 0.521-0.295 0.705s-0.433 0.295-0.705 0.295h-16c-0.272 0-0.521-0.11-0.705-0.295s-0.295-0.433-0.295-0.705zM1 5.983c0 0.010 0 0.020 0 0.030v11.987c0 0.828 0.34 1.579 0.88 2.12s1.292 0.88 2.12 0.88h16c0.828 0 1.579-0.34 2.12-0.88s0.88-1.292 0.88-2.12v-11.988c0-0.010 0-0.020 0-0.030-0.005-0.821-0.343-1.565-0.88-2.102-0.541-0.54-1.292-0.88-2.12-0.88h-16c-0.828 0-1.579 0.34-2.12 0.88-0.537 0.537-0.875 1.281-0.88 2.103zM20.894 5.554l-8.894 6.225-8.894-6.225c0.048-0.096 0.112-0.183 0.188-0.259 0.185-0.185 0.434-0.295 0.706-0.295h16c0.272 0 0.521 0.11 0.705 0.295 0.076 0.076 0.14 0.164 0.188 0.259z"></path>
</symbol>
<symbol id="icon-save" viewBox="0 0 24 24">
<path d="M19 22c0.828 0 1.58-0.337 2.121-0.879s0.879-1.293 0.879-2.121v-11c0-0.256-0.098-0.512-0.293-0.707l-5-5c-0.181-0.181-0.431-0.293-0.707-0.293h-11c-0.828 0-1.58 0.337-2.121 0.879s-0.879 1.293-0.879 2.121v14c0 0.828 0.337 1.58 0.879 2.121s1.293 0.879 2.121 0.879zM8 20v-6h8v6zM6 4v4c0 0.552 0.448 1 1 1h8c0.552 0 1-0.448 1-1s-0.448-1-1-1h-7v-3h7.586l4.414 4.414v10.586c0 0.276-0.111 0.525-0.293 0.707s-0.431 0.293-0.707 0.293h-1v-7c0-0.552-0.448-1-1-1h-10c-0.552 0-1 0.448-1 1v7h-1c-0.276 0-0.525-0.111-0.707-0.293s-0.293-0.431-0.293-0.707v-14c0-0.276 0.111-0.525 0.293-0.707s0.431-0.293 0.707-0.293z"></path>
</symbol>
<symbol id="icon-send" viewBox="0 0 24 24">
<path d="M22.963 2.269c0.043-0.151 0.050-0.314 0.015-0.476-0.024-0.113-0.068-0.224-0.131-0.325-0.064-0.102-0.145-0.19-0.238-0.262-0.117-0.090-0.249-0.15-0.386-0.181s-0.282-0.034-0.426-0.004c-0.042 0.009-0.085 0.021-0.126 0.035l-0.021 0.007-19.98 6.993c-0.252 0.088-0.467 0.276-0.584 0.538-0.224 0.505 0.003 1.096 0.508 1.32l8.649 3.844 3.844 8.649c0.108 0.243 0.313 0.443 0.583 0.538 0.521 0.182 1.092-0.092 1.274-0.614l6.993-19.979c0.010-0.027 0.019-0.054 0.027-0.082zM10.779 11.807l-6.068-2.696 13.483-4.72zM19.609 5.806l-4.72 13.483-2.696-6.068z"></path>
</symbol>
<symbol id="icon-shopping-cart" viewBox="0 0 24 24">
<path d="M11 21c0-0.552-0.225-1.053-0.586-1.414s-0.862-0.586-1.414-0.586-1.053 0.225-1.414 0.586-0.586 0.862-0.586 1.414 0.225 1.053 0.586 1.414 0.862 0.586 1.414 0.586 1.053-0.225 1.414-0.586 0.586-0.862 0.586-1.414zM22 21c0-0.552-0.225-1.053-0.586-1.414s-0.862-0.586-1.414-0.586-1.053 0.225-1.414 0.586-0.586 0.862-0.586 1.414 0.225 1.053 0.586 1.414 0.862 0.586 1.414 0.586 1.053-0.225 1.414-0.586 0.586-0.862 0.586-1.414zM7.221 7h14.57l-1.371 7.191c-0.046 0.228-0.166 0.425-0.332 0.568-0.18 0.156-0.413 0.246-0.688 0.241h-9.734c-0.232 0.003-0.451-0.071-0.626-0.203-0.19-0.143-0.329-0.351-0.379-0.603zM1 2h3.18l0.848 4.239c0.108 0.437 0.502 0.761 0.972 0.761h1.221l-0.4-2h-0.821c-0.552 0-1 0.448-1 1 0 0.053 0.004 0.105 0.012 0.155 0.004 0.028 0.010 0.057 0.017 0.084l1.671 8.347c0.149 0.751 0.57 1.383 1.14 1.811 0.521 0.392 1.17 0.613 1.854 0.603h9.706c0.748 0.015 1.455-0.261 1.995-0.727 0.494-0.426 0.848-1.013 0.985-1.683l1.602-8.402c0.103-0.543-0.252-1.066-0.795-1.17-0.065-0.013-0.13-0.019-0.187-0.018h-16.18l-0.84-4.196c-0.094-0.462-0.497-0.804-0.98-0.804h-4c-0.552 0-1 0.448-1 1s0.448 1 1 1z"></path>
</symbol>
<symbol id="icon-slack" viewBox="0 0 24 24">
<path d="M14.5 11c0.69 0 1.316-0.28 1.768-0.732s0.732-1.078 0.732-1.768v-5c0-0.69-0.28-1.316-0.732-1.768s-1.078-0.732-1.768-0.732-1.316 0.28-1.768 0.732-0.732 1.078-0.732 1.768v5c0 0.69 0.28 1.316 0.732 1.768s1.078 0.732 1.768 0.732zM14.5 9c-0.14 0-0.264-0.055-0.354-0.146s-0.146-0.214-0.146-0.354v-5c0-0.14 0.055-0.264 0.146-0.354s0.214-0.146 0.354-0.146 0.264 0.055 0.354 0.146 0.146 0.214 0.146 0.354v5c0 0.14-0.055 0.264-0.146 0.354s-0.214 0.146-0.354 0.146zM20.5 11c0.69 0 1.316-0.28 1.768-0.732s0.732-1.078 0.732-1.768-0.28-1.316-0.732-1.768-1.078-0.732-1.768-0.732-1.316 0.28-1.768 0.732-0.732 1.078-0.732 1.768v1.5c0 0.552 0.448 1 1 1zM20.5 9h-0.5v-0.5c0-0.14 0.055-0.264 0.146-0.354s0.214-0.146 0.354-0.146 0.264 0.055 0.354 0.146 0.146 0.214 0.146 0.354-0.055 0.264-0.146 0.354-0.214 0.146-0.354 0.146zM9.5 13c-0.69 0-1.316 0.28-1.768 0.732s-0.732 1.078-0.732 1.768v5c0 0.69 0.28 1.316 0.732 1.768s1.078 0.732 1.768 0.732 1.316-0.28 1.768-0.732 0.732-1.078 0.732-1.768v-5c0-0.69-0.28-1.316-0.732-1.768s-1.078-0.732-1.768-0.732zM9.5 15c0.14 0 0.264 0.055 0.354 0.146s0.146 0.214 0.146 0.354v5c0 0.14-0.055 0.264-0.146 0.354s-0.214 0.146-0.354 0.146-0.264-0.055-0.354-0.146-0.146-0.214-0.146-0.354v-5c0-0.14 0.055-0.264 0.146-0.354s0.214-0.146 0.354-0.146zM3.5 13c-0.69 0-1.316 0.28-1.768 0.732s-0.732 1.078-0.732 1.768 0.28 1.316 0.732 1.768 1.078 0.732 1.768 0.732 1.316-0.28 1.768-0.732 0.732-1.078 0.732-1.768v-1.5c0-0.552-0.448-1-1-1zM3.5 15h0.5v0.5c0 0.14-0.055 0.264-0.146 0.354s-0.214 0.146-0.354 0.146-0.264-0.055-0.354-0.146-0.146-0.214-0.146-0.354 0.055-0.264 0.146-0.354 0.214-0.146 0.354-0.146zM13 14.5c0 0.69 0.28 1.316 0.732 1.768s1.078 0.732 1.768 0.732h5c0.69 0 1.316-0.28 1.768-0.732s0.732-1.078 0.732-1.768-0.28-1.316-0.732-1.768-1.078-0.732-1.768-0.732h-5c-0.69 0-1.316 0.28-1.768 0.732s-0.732 1.078-0.732 1.768zM15 14.5c0-0.14 0.055-0.264 0.146-0.354s0.214-0.146 0.354-0.146h5c0.14 0 0.264 0.055 0.354 0.146s0.146 0.214 0.146 0.354-0.055 0.264-0.146 0.354-0.214 0.146-0.354 0.146h-5c-0.14 0-0.264-0.055-0.354-0.146s-0.146-0.214-0.146-0.354zM15.5 20c0.14 0 0.264 0.055 0.354 0.146s0.146 0.214 0.146 0.354-0.055 0.264-0.146 0.354-0.214 0.146-0.354 0.146-0.264-0.055-0.354-0.146-0.146-0.214-0.146-0.354v-0.5zM15.5 18h-1.5c-0.552 0-1 0.448-1 1v1.5c0 0.69 0.28 1.316 0.732 1.768s1.078 0.732 1.768 0.732 1.316-0.28 1.768-0.732 0.732-1.078 0.732-1.768-0.28-1.316-0.732-1.768-1.078-0.732-1.768-0.732zM9 9.5c0 0.14-0.055 0.264-0.146 0.354s-0.214 0.146-0.354 0.146h-5c-0.14 0-0.264-0.055-0.354-0.146s-0.146-0.214-0.146-0.354 0.055-0.264 0.146-0.354 0.214-0.146 0.354-0.146h5c0.14 0 0.264 0.055 0.354 0.146s0.146 0.214 0.146 0.354zM11 9.5c0-0.69-0.28-1.316-0.732-1.768s-1.078-0.732-1.768-0.732h-5c-0.69 0-1.316 0.28-1.768 0.732s-0.732 1.078-0.732 1.768 0.28 1.316 0.732 1.768 1.078 0.732 1.768 0.732h5c0.69 0 1.316-0.28 1.768-0.732s0.732-1.078 0.732-1.768zM8.5 4c-0.14 0-0.264-0.055-0.354-0.146s-0.146-0.214-0.146-0.354 0.055-0.264 0.146-0.354 0.214-0.146 0.354-0.146 0.264 0.055 0.354 0.146 0.146 0.214 0.146 0.354v0.5zM8.5 6h1.5c0.552 0 1-0.448 1-1v-1.5c0-0.69-0.28-1.316-0.732-1.768s-1.078-0.732-1.768-0.732-1.316 0.28-1.768 0.732-0.732 1.078-0.732 1.768 0.28 1.316 0.732 1.768 1.078 0.732 1.768 0.732z"></path>
</symbol>
<symbol id="icon-thumbs-down" viewBox="0 0 24 24">
<path d="M11 15c0-0.552-0.448-1-1-1h-5.679c-0.065-0.002-0.153-0.011-0.153-0.011-0.273-0.041-0.502-0.188-0.655-0.396s-0.225-0.47-0.184-0.742l1.38-8.998c0.037-0.239 0.156-0.448 0.325-0.6 0.179-0.161 0.415-0.256 0.686-0.253h10.28v9.788l-3.608 8.118c-0.307-0.098-0.582-0.268-0.806-0.492-0.363-0.363-0.586-0.861-0.586-1.414zM9 16v3c0 1.104 0.449 2.106 1.172 2.828s1.724 1.172 2.828 1.172c0.405 0 0.754-0.241 0.914-0.594l4-9c0.060-0.134 0.087-0.275 0.086-0.406v-11c0-0.552-0.448-1-1-1h-11.28c-0.767-0.009-1.482 0.281-2.021 0.763-0.505 0.452-0.857 1.076-0.967 1.783l-1.38 9.002c-0.125 0.82 0.096 1.614 0.55 2.231s1.147 1.063 1.965 1.187c0.165 0.025 0.333 0.037 0.492 0.034zM17 3h2.67c0.361-0.006 0.674 0.119 0.912 0.332 0.213 0.191 0.364 0.45 0.418 0.746v6.787c-0.037 0.34-0.208 0.63-0.455 0.833-0.235 0.194-0.537 0.306-0.861 0.301l-2.684 0.001c-0.552 0-1 0.448-1 1s0.448 1 1 1h2.656c0.81 0.012 1.569-0.27 2.16-0.756 0.622-0.511 1.059-1.251 1.176-2.11 0.005-0.040 0.008-0.087 0.008-0.134v-7c0-0.042-0.003-0.089-0.009-0.137-0.111-0.803-0.505-1.51-1.075-2.020-0.6-0.537-1.397-0.858-2.246-0.842h-2.67c-0.552 0-1 0.448-1 1s0.448 1 1 1z"></path>
</symbol>
<symbol id="icon-thumbs-up" viewBox="0 0 24 24">
<path d="M13 9c0 0.552 0.448 1 1 1h5.679c0.065 0.002 0.153 0.011 0.153 0.011 0.273 0.041 0.502 0.188 0.655 0.396s0.225 0.47 0.184 0.742l-1.38 8.998c-0.037 0.239-0.156 0.448-0.325 0.6-0.18 0.161-0.415 0.256-0.686 0.253h-10.28v-9.788l3.608-8.118c0.307 0.098 0.582 0.268 0.806 0.492 0.363 0.363 0.586 0.861 0.586 1.414zM15 8v-3c0-1.104-0.449-2.106-1.172-2.828s-1.724-1.172-2.828-1.172c-0.405 0-0.754 0.241-0.914 0.594l-4 9c-0.060 0.134-0.087 0.275-0.086 0.406v11c0 0.552 0.448 1 1 1h11.28c0.767 0.009 1.482-0.281 2.021-0.763 0.505-0.452 0.857-1.076 0.967-1.783l1.38-9.002c0.125-0.82-0.096-1.614-0.55-2.231s-1.147-1.063-1.965-1.187c-0.165-0.025-0.333-0.037-0.492-0.034zM7 21h-3c-0.276 0-0.525-0.111-0.707-0.293s-0.293-0.431-0.293-0.707v-7c0-0.276 0.111-0.525 0.293-0.707s0.431-0.293 0.707-0.293h3c0.552 0 1-0.448 1-1s-0.448-1-1-1h-3c-0.828 0-1.58 0.337-2.121 0.879s-0.879 1.293-0.879 2.121v7c0 0.828 0.337 1.58 0.879 2.121s1.293 0.879 2.121 0.879h3c0.552 0 1-0.448 1-1s-0.448-1-1-1z"></path>
</symbol>
<symbol id="icon-toggle-left" viewBox="0 0 24 24">
<path d="M8 4c-2.209 0-4.21 0.897-5.657 2.343s-2.343 3.448-2.343 5.657 0.897 4.21 2.343 5.657 3.448 2.343 5.657 2.343h8c2.209 0 4.21-0.897 5.657-2.343s2.343-3.448 2.343-5.657-0.897-4.21-2.343-5.657-3.448-2.343-5.657-2.343zM8 6h8c1.657 0 3.156 0.67 4.243 1.757s1.757 2.586 1.757 4.243-0.67 3.156-1.757 4.243-2.586 1.757-4.243 1.757h-8c-1.657 0-3.156-0.67-4.243-1.757s-1.757-2.586-1.757-4.243 0.67-3.156 1.757-4.243 2.586-1.757 4.243-1.757zM12 12c0-1.104-0.449-2.106-1.172-2.828s-1.724-1.172-2.828-1.172-2.106 0.449-2.828 1.172-1.172 1.724-1.172 2.828 0.449 2.106 1.172 2.828 1.724 1.172 2.828 1.172 2.106-0.449 2.828-1.172 1.172-1.724 1.172-2.828zM10 12c0 0.553-0.223 1.051-0.586 1.414s-0.861 0.586-1.414 0.586-1.051-0.223-1.414-0.586-0.586-0.861-0.586-1.414 0.223-1.051 0.586-1.414 0.861-0.586 1.414-0.586 1.051 0.223 1.414 0.586 0.586 0.861 0.586 1.414z"></path>
</symbol>
<symbol id="icon-toggle-right" viewBox="0 0 24 24">
<path d="M8 4c-2.209 0-4.21 0.897-5.657 2.343s-2.343 3.448-2.343 5.657 0.897 4.21 2.343 5.657 3.448 2.343 5.657 2.343h8c2.209 0 4.21-0.897 5.657-2.343s2.343-3.448 2.343-5.657-0.897-4.21-2.343-5.657-3.448-2.343-5.657-2.343zM8 6h8c1.657 0 3.156 0.67 4.243 1.757s1.757 2.586 1.757 4.243-0.67 3.156-1.757 4.243-2.586 1.757-4.243 1.757h-8c-1.657 0-3.156-0.67-4.243-1.757s-1.757-2.586-1.757-4.243 0.67-3.156 1.757-4.243 2.586-1.757 4.243-1.757zM20 12c0-1.104-0.449-2.106-1.172-2.828s-1.724-1.172-2.828-1.172-2.106 0.449-2.828 1.172-1.172 1.724-1.172 2.828 0.449 2.106 1.172 2.828 1.724 1.172 2.828 1.172 2.106-0.449 2.828-1.172 1.172-1.724 1.172-2.828zM18 12c0 0.553-0.223 1.051-0.586 1.414s-0.861 0.586-1.414 0.586-1.051-0.223-1.414-0.586-0.586-0.861-0.586-1.414 0.223-1.051 0.586-1.414 0.861-0.586 1.414-0.586 1.051 0.223 1.414 0.586 0.586 0.861 0.586 1.414z"></path>
</symbol>
<symbol id="icon-tv" viewBox="0 0 24 24">
<path d="M12 8h8c0.276 0 0.525 0.111 0.707 0.293s0.293 0.431 0.293 0.707v11c0 0.276-0.111 0.525-0.293 0.707s-0.431 0.293-0.707 0.293h-16c-0.276 0-0.525-0.111-0.707-0.293s-0.293-0.431-0.293-0.707v-11c0-0.276 0.111-0.525 0.293-0.707s0.431-0.293 0.707-0.293h8zM16.293 1.293l-4.293 4.293-4.293-4.293c-0.391-0.391-1.024-0.391-1.414 0s-0.391 1.024 0 1.414l3.293 3.293h-5.586c-0.828 0-1.58 0.337-2.121 0.879s-0.879 1.293-0.879 2.121v11c0 0.828 0.337 1.58 0.879 2.121s1.293 0.879 2.121 0.879h16c0.828 0 1.58-0.337 2.121-0.879s0.879-1.293 0.879-2.121v-11c0-0.828-0.337-1.58-0.879-2.121s-1.293-0.879-2.121-0.879h-5.586l3.293-3.293c0.391-0.391 0.391-1.024 0-1.414s-1.024-0.391-1.414 0z"></path>
</symbol>
<symbol id="icon-twitter" viewBox="0 0 24 24">
<path d="M20.833 5.262c-0.186 0.242-0.391 0.475-0.616 0.696-0.233 0.232-0.347 0.567-0.278 0.908 0.037 0.182 0.060 0.404 0.061 0.634 0 5.256-2.429 8.971-5.81 10.898-2.647 1.509-5.938 1.955-9.222 1.12 1.245-0.361 2.46-0.921 3.593-1.69 0.147-0.099 0.273-0.243 0.352-0.421 0.224-0.505-0.003-1.096-0.508-1.32-2.774-1.233-4.13-2.931-4.769-4.593-0.417-1.084-0.546-2.198-0.52-3.227 0.021-0.811 0.138-1.56 0.278-2.182 0.394 0.343 0.803 0.706 1.235 1.038 2.051 1.577 4.624 2.479 7.395 2.407 0.543-0.015 0.976-0.457 0.976-1v-1.011c-0.002-0.179 0.009-0.357 0.034-0.533 0.113-0.806 0.504-1.569 1.162-2.141 0.725-0.631 1.636-0.908 2.526-0.846s1.753 0.463 2.384 1.188c0.252 0.286 0.649 0.416 1.033 0.304 0.231-0.067 0.463-0.143 0.695-0.228zM22.424 2.183c-0.74 0.522-1.523 0.926-2.287 1.205-0.931-0.836-2.091-1.302-3.276-1.385-1.398-0.097-2.836 0.339-3.977 1.332-1.036 0.901-1.652 2.108-1.83 3.372-0.037 0.265-0.055 0.532-0.054 0.8-1.922-0.142-3.693-0.85-5.15-1.97-0.775-0.596-1.462-1.309-2.034-2.116-0.32-0.45-0.944-0.557-1.394-0.237-0.154 0.109-0.267 0.253-0.335 0.409 0 0-0.132 0.299-0.285 0.76-0.112 0.337-0.241 0.775-0.357 1.29-0.163 0.722-0.302 1.602-0.326 2.571-0.031 1.227 0.12 2.612 0.652 3.996 0.683 1.775 1.966 3.478 4.147 4.823-1.569 0.726-3.245 1.039-4.873 0.967-0.552-0.024-1.019 0.403-1.043 0.955-0.017 0.389 0.19 0.736 0.513 0.918 4.905 2.725 10.426 2.678 14.666 0.261 4.040-2.301 6.819-6.7 6.819-12.634-0.001-0.167-0.008-0.33-0.023-0.489 1.006-1.115 1.676-2.429 1.996-3.781 0.127-0.537-0.206-1.076-0.743-1.203-0.29-0.069-0.58-0.003-0.807 0.156z"></path>
</symbol>
<symbol id="icon-umbrella" viewBox="0 0 24 24">
<path d="M21.84 11h-19.674c0.387-1.824 1.259-3.474 2.485-4.796 1.617-1.744 3.848-2.915 6.394-3.158 2.763-0.264 5.369 0.616 7.354 2.255 1.717 1.418 2.965 3.401 3.441 5.7zM23.995 11.905c-0.316-3.312-1.946-6.184-4.323-8.147s-5.505-3.020-8.817-2.704c-3.052 0.291-5.731 1.699-7.67 3.789-1.759 1.897-2.909 4.357-3.18 7.057-0.055 0.55 0.346 1.040 0.895 1.095 0.035 0.004 0.070 0.005 0.1 0.005h22c0.531 0 0.966-0.414 0.998-0.937-0.001-0.137-0.002-0.148-0.003-0.158zM17 19c0 0.553-0.223 1.051-0.586 1.414s-0.861 0.586-1.414 0.586-1.051-0.223-1.414-0.586-0.586-0.861-0.586-1.414v-7c0-0.552-0.448-1-1-1s-1 0.448-1 1v7c0 1.104 0.449 2.106 1.172 2.828s1.724 1.172 2.828 1.172 2.106-0.449 2.828-1.172 1.172-1.724 1.172-2.828c0-0.552-0.448-1-1-1s-1 0.448-1 1z"></path>
</symbol>
<symbol id="icon-video" viewBox="0 0 24 24">
<path d="M22 8.943v6.114l-4.28-3.057zM3 4c-0.828 0-1.58 0.337-2.121 0.879s-0.879 1.293-0.879 2.121v10c0 0.828 0.337 1.58 0.879 2.121s1.293 0.879 2.121 0.879h11c0.828 0 1.58-0.337 2.121-0.879s0.879-1.293 0.879-2.121v-3.057l5.419 3.871c0.449 0.321 1.074 0.217 1.395-0.232 0.126-0.178 0.187-0.383 0.186-0.582v-10c0-0.552-0.448-1-1-1-0.218 0-0.42 0.070-0.581 0.186l-5.419 3.871v-3.057c0-0.828-0.337-1.58-0.879-2.121s-1.293-0.879-2.121-0.879zM3 6h11c0.276 0 0.525 0.111 0.707 0.293s0.293 0.431 0.293 0.707v10c0 0.276-0.111 0.525-0.293 0.707s-0.431 0.293-0.707 0.293h-11c-0.276 0-0.525-0.111-0.707-0.293s-0.293-0.431-0.293-0.707v-10c0-0.276 0.111-0.525 0.293-0.707s0.431-0.293 0.707-0.293z"></path>
</symbol>
<symbol id="icon-video-off" viewBox="0 0 24 24">
<path d="M10.66 6h3.34c0.276 0 0.525 0.111 0.707 0.293s0.293 0.431 0.293 0.707v3.34c0 0.276 0.112 0.526 0.293 0.707l1 1c0.351 0.351 0.898 0.387 1.293 0.103l4.414-3.192v8.042c0 0.552 0.448 1 1 1s1-0.448 1-1v-10c0.001-0.201-0.061-0.408-0.19-0.586-0.324-0.447-0.949-0.548-1.396-0.224l-5.309 3.841-0.105-0.105v-2.926c0-0.828-0.337-1.58-0.879-2.121s-1.293-0.879-2.121-0.879h-3.34c-0.552 0-1 0.448-1 1s0.448 1 1 1zM4.586 6l10.414 10.414v0.586c0 0.276-0.111 0.525-0.293 0.707s-0.431 0.293-0.707 0.293h-11c-0.276 0-0.525-0.111-0.707-0.293s-0.293-0.431-0.293-0.707v-10c0-0.276 0.111-0.525 0.293-0.707s0.431-0.293 0.707-0.293zM0.293 1.707l2.318 2.318c-0.673 0.087-1.277 0.398-1.732 0.854-0.542 0.541-0.879 1.293-0.879 2.121v10c0 0.828 0.337 1.58 0.879 2.121s1.293 0.879 2.121 0.879h11c0.828 0 1.58-0.337 2.121-0.879 0.269-0.269 0.488-0.59 0.64-0.946l5.532 5.532c0.391 0.391 1.024 0.391 1.414 0s0.391-1.024 0-1.414l-22-22c-0.391-0.391-1.024-0.391-1.414 0s-0.391 1.024 0 1.414z"></path>
</symbol>
<symbol id="icon-voicemail" viewBox="0 0 24 24">
<path d="M9 11.5c0 0.967-0.391 1.84-1.025 2.475s-1.508 1.025-2.475 1.025-1.84-0.391-2.475-1.025-1.025-1.508-1.025-2.475 0.391-1.84 1.025-2.475 1.508-1.025 2.475-1.025 1.84 0.391 2.475 1.025 1.025 1.508 1.025 2.475zM22 11.5c0 0.967-0.391 1.84-1.025 2.475s-1.508 1.025-2.475 1.025-1.84-0.391-2.475-1.025-1.025-1.508-1.025-2.475 0.391-1.84 1.025-2.475 1.508-1.025 2.475-1.025 1.84 0.391 2.475 1.025 1.025 1.508 1.025 2.475zM5.5 17h13c1.519 0 2.895-0.617 3.889-1.611s1.611-2.37 1.611-3.889-0.617-2.895-1.611-3.889-2.37-1.611-3.889-1.611-2.895 0.617-3.889 1.611-1.611 2.37-1.611 3.889c0 1.329 0.473 2.55 1.257 3.5h-4.514c0.784-0.95 1.257-2.171 1.257-3.5 0-1.519-0.617-2.895-1.611-3.889s-2.37-1.611-3.889-1.611-2.895 0.617-3.889 1.611-1.611 2.37-1.611 3.889 0.617 2.895 1.611 3.889 2.37 1.611 3.889 1.611z"></path>
</symbol>
<symbol id="icon-youtube" viewBox="0 0 24 24">
<path d="M21.563 6.637c0.287 1.529 0.448 3.295 0.437 5.125 0.019 1.528-0.123 3.267-0.437 5.021-0.057 0.208-0.15 0.403-0.272 0.575-0.227 0.321-0.558 0.565-0.949 0.675-0.604 0.161-2.156 0.275-3.877 0.341-2.23 0.086-4.465 0.086-4.465 0.086s-2.235 0-4.465-0.085c-1.721-0.066-3.273-0.179-3.866-0.338-0.205-0.057-0.396-0.149-0.566-0.268-0.311-0.22-0.55-0.536-0.67-0.923-0.285-1.526-0.444-3.286-0.433-5.11-0.021-1.54 0.121-3.292 0.437-5.060 0.057-0.208 0.15-0.403 0.272-0.575 0.227-0.321 0.558-0.565 0.949-0.675 0.604-0.161 2.156-0.275 3.877-0.341 2.23-0.085 4.465-0.085 4.465-0.085s2.235 0 4.466 0.078c1.719 0.060 3.282 0.163 3.856 0.303 0.219 0.063 0.421 0.165 0.598 0.299 0.307 0.232 0.538 0.561 0.643 0.958zM23.51 6.177c-0.217-0.866-0.718-1.59-1.383-2.093-0.373-0.282-0.796-0.494-1.249-0.625-0.898-0.22-2.696-0.323-4.342-0.38-2.267-0.079-4.536-0.079-4.536-0.079s-2.272 0-4.541 0.087c-1.642 0.063-3.45 0.175-4.317 0.407-0.874 0.247-1.581 0.77-2.064 1.45-0.27 0.381-0.469 0.811-0.587 1.268-0.006 0.024-0.011 0.049-0.015 0.071-0.343 1.898-0.499 3.793-0.476 5.481-0.012 1.924 0.161 3.831 0.477 5.502 0.006 0.031 0.013 0.062 0.021 0.088 0.245 0.86 0.77 1.567 1.451 2.048 0.357 0.252 0.757 0.443 1.182 0.561 0.879 0.235 2.686 0.347 4.328 0.41 2.269 0.087 4.541 0.087 4.541 0.087s2.272 0 4.541-0.087c1.642-0.063 3.449-0.175 4.317-0.407 0.873-0.247 1.581-0.77 2.063-1.45 0.27-0.381 0.47-0.811 0.587-1.267 0.006-0.025 0.012-0.050 0.015-0.071 0.34-1.884 0.496-3.765 0.476-5.44 0.012-1.925-0.161-3.833-0.477-5.504-0.004-0.020-0.008-0.040-0.012-0.057zM10.75 13.301v-3.102l2.727 1.551zM10.244 15.889l5.75-3.27c0.48-0.273 0.648-0.884 0.375-1.364-0.093-0.164-0.226-0.292-0.375-0.375l-5.75-3.27c-0.48-0.273-1.091-0.105-1.364 0.375-0.090 0.158-0.132 0.33-0.131 0.494v6.54c0 0.552 0.448 1 1 1 0.182 0 0.352-0.049 0.494-0.131z"></path>
</symbol>
</defs>
</svg>
